 <svg  version="1.0" xmlns="http://www.w3.org/2000/svg"  width="300.000000pt" height="247.000000pt" viewBox="0 0 300.000000 247.000000"  preserveAspectRatio="xMidYMid meet">  <g transform="translate(0.000000,247.000000) scale(0.050000,-0.050000)" fill="#ff9500" stroke="none"> <path d="M904 4915 c-28 -34 -186 -400 -176 -409 4 -5 47 83 95 195 56 130 101 209 127 220 30 13 32 17 7 18 -17 0 -41 -10 -53 -24z"/> <path d="M1060 4900 c54 -54 51 -78 -31 -264 -39 -89 -67 -165 -63 -169 13 -13 154 321 154 365 0 23 -16 57 -37 75 -51 47 -71 41 -23 -7z"/> <path d="M1631 4889 c-42 -43 -39 -135 6 -176 33 -30 136 -33 1074 -33 l1038 0 352 -350 c359 -358 390 -378 475 -319 108 76 76 128 -331 534 l-375 375 -1104 0 c-976 0 -1107 -4 -1135 -31z m2606 -356 c403 -403 442 -471 297 -522 -53 -18 -69 -5 -410 335 l-354 354 -1051 0 c-1123 0 -1099 -2 -1099 100 0 102 -27 100 1149 100 l1101 0 367 -367z"/> <path d="M4685 3895 c-1035 -1036 -1033 -1034 -964 -1122 85 -107 109 -91 608 407 l461 459 461 -459 c478 -477 502 -494 589 -424 101 82 79 115 -412 606 l-458 458 433 435 c238 239 443 455 456 480 37 74 -12 154 -99 161 -68 5 -101 -26 -1075 -1001z m1144 941 c48 -69 57 -58 -429 -545 l-460 -462 442 -439 c464 -464 504 -512 476 -584 -49 -131 -90 -103 -585 391 -255 255 -472 463 -483 463 -11 0 -227 -207 -480 -460 -467 -467 -499 -491 -570 -420 -73 73 -48 101 955 1105 1060 1061 1058 1059 1134 951z"/> <path d="M2796 4469 l44 -31 0 -810 c0 -868 -2 -888 -98 -888 -111 0 -111 -2 -122 868 l-11 802 -4 -786 c-6 -889 -4 -903 137 -904 119 0 118 -6 118 893 0 866 -2 887 -91 887 -10 0 2 -14 27 -31z"/> <path d="M700 4477 c0 -5 -153 -364 -340 -797 -187 -434 -338 -796 -335 -804 3 -9 52 95 109 229 58 135 213 496 346 803 133 307 236 562 231 568 -6 6 -11 6 -11 1z"/> <path d="M1276 4425 c23 -19 109 -195 193 -391 148 -350 209 -479 210 -449 1 8 -63 161 -141 340 -78 179 -159 365 -181 414 -37 86 -67 120 -104 121 -10 0 1 -16 23 -35z"/> <path d="M940 4438 c0 -5 -68 -166 -152 -358 -249 -575 -329 -766 -321 -774 4 -4 117 247 251 556 134 310 239 568 233 574 -6 6 -11 7 -11 2z"/> <path d="M1100 4308 c0 -28 325 -770 334 -761 7 7 -308 751 -326 771 -5 5 -8 0 -8 -10z"/> <path d="M1681 3556 c-1 -7 67 -168 149 -356 165 -377 166 -379 113 -427 -101 -92 -146 -43 -310 341 -126 293 -191 429 -192 404 -2 -21 318 -743 341 -771 53 -63 218 -1 218 81 0 50 -317 772 -319 728z"/> <path d="M422 3238 c-10 -27 -51 -124 -91 -216 -39 -92 -69 -171 -64 -175 4 -4 49 88 100 206 51 117 89 218 84 223 -6 5 -18 -12 -29 -38z"/> <path d="M891 3249 c-112 -113 53 -290 185 -198 66 47 51 229 -20 229 -12 0 -8 -16 11 -37 68 -75 17 -203 -80 -203 -53 0 -107 61 -107 120 0 26 15 63 33 83 41 45 22 49 -22 6z"/> <path d="M20 2808 c0 -38 71 -88 123 -88 49 0 117 53 117 91 0 10 -14 -2 -31 -27 -42 -59 -136 -59 -178 0 -17 25 -31 35 -31 24z"/> <path d="M2801 2205 c-40 -33 -190 -342 -174 -359 4 -4 42 71 84 166 83 185 131 230 205 190 69 -37 70 -91 5 -245 -79 -188 -66 -200 16 -15 76 172 77 186 14 249 -58 58 -91 61 -150 14z"/> <path d="M35 2185 c-19 -21 -35 -46 -35 -56 0 -10 14 2 31 27 59 83 937 57 1177 -35 32 -12 62 -18 67 -13 5 5 -53 29 -128 54 -202 66 -1057 84 -1112 23z"/> <path d="M4530 2192 c-326 -81 -614 -409 -677 -772 -7 -38 8 -6 34 72 120 366 340 598 642 677 155 40 183 39 231 -9 22 -22 40 -32 40 -21 0 69 -113 92 -270 53z"/> <path d="M5065 2190 c-25 -18 -44 -48 -44 -66 1 -26 6 -23 19 9 25 61 82 73 215 46 359 -74 623 -385 715 -839 14 -71 27 -107 28 -80 6 186 -127 496 -288 675 -184 203 -527 339 -645 255z"/> <path d="M1300 2090 c0 -5 38 -29 85 -52 222 -113 390 -298 489 -538 25 -60 45 -95 46 -78 1 72 -149 326 -257 436 -121 123 -363 278 -363 232z"/> <path d="M4766 2043 c-16 -26 -56 -40 -132 -48 -382 -40 -700 -590 -601 -1041 13 -56 17 -18 17 150 0 488 276 876 622 876 62 0 128 42 128 81 0 28 -8 23 -34 -18z"/> <path d="M5020 2063 c0 -36 76 -83 133 -83 192 0 406 -162 523 -398 35 -71 64 -118 64 -105 0 185 -364 523 -564 523 -49 0 -90 14 -116 40 -22 22 -40 32 -40 23z"/> <path d="M220 1192 l0 -791 -49 -32 c-54 -35 -113 -17 -150 46 -11 19 -20 25 -20 14 -2 -50 56 -96 119 -96 121 0 120 -5 120 851 l0 776 325 0 c209 -1 368 -11 445 -29 136 -32 163 -28 66 10 -43 17 -205 29 -461 34 l-395 9 0 -792z"/> <path d="M1258 1840 c169 -94 240 -156 324 -286 43 -66 78 -112 78 -101 0 87 -237 333 -390 405 -130 61 -137 51 -12 -18z"/> <path d="M2474 1516 c-73 -168 -227 -526 -343 -794 -116 -268 -211 -493 -210 -500 1 -25 48 72 169 355 69 161 217 504 329 761 111 257 199 471 194 476 -4 4 -67 -130 -139 -298z"/> <path d="M2840 1778 c0 -4 -55 -134 -122 -288 -263 -606 -337 -789 -278 -689 45 78 419 967 410 976 -5 5 -10 6 -10 1z"/> <path d="M3009 1711 c-27 -27 -49 -59 -49 -71 0 -23 345 -833 392 -920 66 -124 15 10 -148 385 -242 556 -231 525 -206 572 78 145 160 67 323 -307 77 -176 172 -394 212 -486 40 -91 76 -162 80 -158 4 4 -89 228 -206 499 -243 561 -279 605 -398 486z"/> <path d="M3827 1120 c0 -116 4 -163 8 -105 4 58 4 152 0 210 -4 58 -8 11 -8 -105z"/> <path d="M1708 1110 c0 -176 2 -188 17 -98 9 56 9 146 0 200 -15 85 -17 71 -17 -102z"/> <path d="M1947 1110 c0 -110 4 -152 8 -94 4 58 4 148 0 200 -4 52 -8 4 -8 -106z"/> <path d="M5786 1120 c0 -71 4 -101 8 -65 5 36 5 94 0 130 -4 36 -8 7 -8 -65z"/> <path d="M1655 802 c-78 -219 -286 -403 -558 -494 -102 -34 -122 -46 -67 -37 158 24 376 150 513 297 50 54 163 283 154 311 -4 12 -23 -23 -42 -77z"/> <path d="M1913 836 c-64 -338 -379 -641 -794 -764 -188 -56 -183 -70 8 -20 262 67 522 246 659 453 76 116 163 337 149 379 -5 14 -15 -7 -22 -48z"/> <path d="M3851 832 c45 -299 283 -620 548 -738 167 -74 401 -67 401 12 0 12 -12 5 -27 -15 -23 -32 -46 -35 -157 -26 -326 26 -616 310 -740 722 -25 85 -33 99 -25 45z"/> <path d="M5942 782 c-98 -385 -412 -691 -733 -717 -112 -9 -126 -6 -156 37 -24 34 -33 38 -33 15 0 -171 437 -64 661 162 147 148 344 543 295 591 -5 5 -20 -34 -34 -88z"/> <path d="M4061 845 c-10 -191 339 -588 513 -584 20 0 2 13 -40 28 -198 71 -345 239 -445 510 -14 39 -27 60 -28 46z"/> <path d="M5673 656 c-70 -149 -201 -283 -339 -347 -57 -27 -93 -49 -79 -49 145 -1 557 435 482 510 -4 4 -33 -48 -64 -114z"/> <path d="M2320 566 c-46 -108 -102 -236 -123 -284 -20 -49 -34 -92 -30 -96 4 -4 63 121 130 277 68 156 119 287 115 291 -4 4 -45 -81 -92 -188z"/> <path d="M3620 694 c0 -25 185 -436 193 -428 4 4 -33 101 -83 214 -86 197 -110 243 -110 214z"/> <path d="M3385 640 c37 -103 182 -420 188 -413 11 10 -154 397 -179 423 -13 13 -16 10 -9 -10z"/> <path d="M2784 609 c-57 -40 -60 -148 -5 -198 87 -79 221 -19 221 99 0 114 -117 168 -216 99z m165 -20 c39 -40 40 -136 1 -169 -44 -37 -133 -30 -163 11 -83 113 64 255 162 158z"/> <path d="M4675 246 c37 -5 78 -27 95 -52 24 -35 30 -37 30 -9 0 43 -61 76 -134 72 -52 -3 -52 -4 9 -11z"/> <path d="M5051 229 c-17 -18 -31 -42 -31 -55 0 -13 14 -3 30 20 20 28 58 46 105 51 l75 8 -74 4 c-44 2 -86 -10 -105 -28z"/> <path d="M624 226 c-95 -38 -49 -225 56 -225 17 0 9 10 -18 24 -77 40 -91 108 -33 166 48 48 47 56 -5 35z"/> <path d="M1890 161 c-44 -140 172 -213 240 -82 44 87 37 97 -16 19 -76 -114 -237 -72 -205 54 14 57 -1 65 -19 9z"/> <path d="M3581 194 c-3 -49 85 -175 129 -186 52 -13 150 35 150 72 0 11 -18 2 -40 -20 -73 -73 -135 -46 -207 90 -17 33 -32 53 -32 44z"/> </g> </svg> 