<?xml version="1.0" standalone="no"?>
<!DOCTYPE svg PUBLIC "-//W3C//DTD SVG 20010904//EN"
 "http://www.w3.org/TR/2001/REC-SVG-20010904/DTD/svg10.dtd">
<svg version="1.0" xmlns="http://www.w3.org/2000/svg"
 width="160.000000pt" height="160.000000pt" viewBox="0 0 160.000000 160.000000"
 preserveAspectRatio="xMidYMid meet">
<metadata>
Created by potrace 1.10, written by Peter Selinger 2001-2011
</metadata>
<g transform="translate(0.000000,160.000000) scale(0.100000,-0.100000)"
fill="#ff6600" stroke="none">
<path d="M75 1593 c-29 -7 -62 -41 -68 -70 -4 -22 1 -19 44 23 43 42 56 57 47
53 -2 -1 -12 -3 -23 -6z"/>
<path d="M1512 1582 c15 -19 36 -40 65 -65 21 -19 22 -18 16 5 -8 32 -40 65
-69 71 -21 4 -22 2 -12 -11z"/>
<path d="M587 1235 c-31 -16 -44 -42 -31 -62 8 -13 29 -19 80 -23 l69 -5 5
-141 c5 -146 13 -174 50 -174 40 0 47 28 46 172 -1 152 -3 148 66 148 35 0 47
-7 100 -58 l59 -57 -65 -69 c-67 -70 -80 -102 -51 -126 24 -20 57 -4 123 61
l62 61 70 -66 c70 -66 95 -77 118 -54 26 26 12 58 -53 125 l-65 68 42 40 c104
97 118 155 37 155 -10 0 -46 -27 -78 -60 -33 -33 -66 -60 -75 -60 -8 0 -27 16
-42 35 -15 20 -44 49 -64 65 l-38 30 -173 3 c-101 1 -181 -2 -192 -8z m424
-84 c57 -58 73 -91 46 -91 -7 0 -39 26 -70 58 l-58 58 -174 -3 c-172 -3 -193
1 -182 30 3 9 54 12 192 10 l188 -2 58 -60z m269 47 c0 -7 -34 -47 -76 -89
l-76 -76 76 -75 c70 -69 94 -108 64 -108 -7 0 -48 35 -90 77 l-78 78 -78 -78
c-42 -42 -83 -77 -90 -77 -34 0 3 49 151 196 147 148 197 186 197 152z m-502
-202 c-3 -125 -5 -141 -20 -144 -17 -3 -18 9 -18 141 0 79 3 146 6 150 3 3 12
3 20 0 12 -4 14 -32 12 -147z"/>
<path d="M434 1218 c-21 -24 -31 -46 -109 -232 -43 -102 -45 -110 -30 -132 17
-27 47 -31 68 -10 8 8 33 60 57 115 23 56 45 101 49 101 12 0 63 -112 59 -128
-3 -13 44 -83 64 -93 10 -5 28 -7 38 -4 33 10 33 46 1 117 -16 36 -27 69 -24
72 4 3 1 6 -5 6 -7 0 -12 5 -12 12 0 19 -43 102 -58 114 -9 6 -16 20 -17 31
-1 24 -28 53 -48 53 -7 0 -22 -10 -33 -22z m51 -10 c8 -21 -140 -353 -159
-356 -9 -2 -16 3 -16 13 0 14 112 281 142 338 10 20 27 22 33 5z m42 -85 c3
-10 30 -72 59 -137 29 -66 51 -123 48 -128 -15 -24 -37 4 -84 110 -61 138 -70
172 -46 172 9 0 19 -8 23 -17z"/>
<path d="M447 952 c-21 -23 -21 -39 -3 -58 18 -17 38 -18 54 -2 17 17 15 42
-6 61 -23 21 -25 21 -45 -1z m43 -28 c0 -20 -30 -30 -40 -13 -11 17 7 40 26
32 8 -3 14 -12 14 -19z"/>
<path d="M349 793 c-67 -7 -74 -26 -71 -186 2 -113 6 -145 19 -159 20 -23 36
-23 56 0 14 15 17 40 17 124 0 125 5 133 77 122 87 -13 137 -90 101 -157 -17
-33 -28 -41 -98 -68 -71 -27 -84 -47 -53 -81 15 -17 26 -19 69 -15 27 3 66 14
86 25 36 20 36 20 54 1 20 -22 50 -25 69 -6 7 8 30 54 51 103 50 117 58 126
77 83 9 -19 19 -45 23 -59 6 -24 6 -25 -13 -7 -24 21 -41 19 -65 -7 -19 -20
-10 -52 18 -63 19 -7 62 15 66 34 2 8 14 -7 28 -33 14 -26 34 -53 46 -61 18
-12 24 -11 48 8 27 21 29 21 62 5 38 -18 72 -20 93 -7 9 6 21 5 31 -1 24 -15
84 -1 119 27 49 42 69 99 66 183 -3 65 -7 78 -37 117 -42 56 -98 83 -139 68
-21 -8 -37 -8 -57 -1 -61 23 -155 -53 -169 -136 -8 -49 -20 -54 -36 -14 -8 18
-26 48 -41 66 -16 18 -26 39 -23 46 3 8 -3 22 -14 32 -33 30 -62 6 -107 -88
-32 -66 -41 -79 -47 -63 -15 43 -41 87 -65 109 -48 44 -149 69 -241 59z m120
-34 c131 -28 194 -141 142 -256 -26 -56 -82 -93 -156 -100 -52 -6 -57 -4 -53
13 2 14 15 21 51 26 91 13 141 69 134 151 -7 82 -59 121 -175 132 l-72 8 0
-142 c0 -130 -1 -142 -17 -139 -16 3 -18 19 -21 147 -2 97 1 148 9 157 14 17
88 18 158 3z m327 -3 c8 -22 -139 -350 -159 -354 -9 -2 -17 2 -17 9 0 10 131
324 147 352 7 12 23 8 29 -7z m304 -12 c0 -8 -9 -14 -20 -14 -11 0 -37 -15
-57 -34 -33 -30 -37 -39 -41 -95 -3 -36 1 -73 8 -91 15 -36 59 -70 90 -70 15
0 20 -5 18 -17 -3 -13 -12 -17 -33 -15 -116 13 -167 205 -81 306 24 27 93 59
108 49 5 -2 8 -11 8 -19z m135 -8 c34 -22 65 -95 65 -152 0 -58 -32 -128 -70
-156 -35 -25 -83 -28 -88 -5 -2 12 3 17 20 17 32 0 65 25 84 63 22 41 21 124
0 165 -16 31 -61 62 -91 62 -15 0 -21 21 -9 32 7 8 61 -8 89 -26z m-75 -36
c51 -26 74 -62 74 -114 -1 -55 -16 -81 -66 -112 l-41 -26 -43 20 c-73 36 -98
106 -63 177 11 23 67 66 97 74 1 1 21 -8 42 -19z m-269 -150 c57 -130 62 -154
33 -148 -18 4 -127 255 -120 275 12 30 30 3 87 -127z m-91 -55 c13 -16 6 -35
-15 -35 -18 0 -28 17 -21 35 7 19 20 19 36 0z"/>
<path d="M11 68 c9 -33 26 -48 68 -60 20 -6 15 2 -24 42 -27 28 -50 50 -51 50
-2 0 2 -14 7 -32z"/>
<path d="M1568 77 c-13 -12 -34 -34 -47 -49 l-23 -27 23 6 c33 8 66 40 72 69
5 30 4 30 -25 1z"/>
</g>
</svg>
