<?xml version="1.0" standalone="no"?>
<!DOCTYPE svg PUBLIC "-//W3C//DTD SVG 20010904//EN"
 "http://www.w3.org/TR/2001/REC-SVG-20010904/DTD/svg10.dtd">
<svg version="1.0" xmlns="http://www.w3.org/2000/svg"
 width="300.000000pt" height="247.000000pt" viewBox="0 0 300.000000 247.000000"
 preserveAspectRatio="xMidYMid meet">
<metadata>
Created by potrace 1.10, written by Peter Selinger 2001-2011
</metadata>
<g transform="translate(0.000000,247.000000) scale(0.100000,-0.100000)"
fill="#ffffff" stroke="none">
<path d="M523 2457 c10 -6 21 -26 26 -42 7 -21 10 -24 10 -10 1 24 -25 65 -41
65 -7 0 -4 -6 5 -13z"/>
<path d="M440 2439 c-7 -11 -10 -23 -7 -25 2 -2 9 7 15 21 14 30 7 33 -8 4z"/>
<path d="M817 2442 c-22 -24 -21 -65 1 -85 17 -15 69 -17 538 -17 l519 0 172
-172 c95 -95 174 -170 177 -167 3 2 -73 82 -168 177 l-172 172 -525 0 c-395 0
-528 3 -537 12 -20 20 -14 65 10 82 12 9 18 16 12 16 -6 0 -18 -8 -27 -18z"/>
<path d="M888 2453 c17 -2 47 -2 65 0 17 2 3 4 -33 4 -36 0 -50 -2 -32 -4z"/>
<path d="M1048 2453 c34 -2 88 -2 120 0 31 2 3 3 -63 3 -66 0 -92 -1 -57 -3z"/>
<path d="M1288 2453 c34 -2 88 -2 120 0 31 2 3 3 -63 3 -66 0 -92 -1 -57 -3z"/>
<path d="M1572 2453 c59 -2 158 -2 220 0 62 1 14 3 -107 3 -121 0 -172 -2
-113 -3z"/>
<path d="M2112 2273 c103 -103 188 -194 189 -203 0 -12 2 -12 6 -1 3 8 -66 85
-183 202 -104 104 -191 189 -194 189 -4 0 78 -84 182 -187z"/>
<path d="M2342 1947 c-276 -276 -502 -510 -502 -519 0 -9 9 -26 21 -39 l20
-24 -16 27 c-9 15 -14 35 -11 45 3 10 230 242 504 516 273 273 495 497 492
497 -3 0 -231 -226 -508 -503z"/>
<path d="M2905 2425 c14 -13 25 -30 25 -37 0 -6 -103 -116 -230 -243 l-230
-230 230 -230 c127 -126 230 -237 231 -245 0 -12 2 -12 6 -1 3 8 -81 99 -223
242 l-229 229 217 217 c119 120 221 228 227 241 12 23 1 58 -23 74 -24 16 -24
7 -1 -17z"/>
<path d="M412 2375 c-17 -37 -14 -45 4 -12 9 16 14 31 11 33 -2 2 -9 -7 -15
-21z"/>
<path d="M511 2309 c-17 -40 -30 -74 -28 -76 2 -2 18 29 36 68 17 40 30 74 28
76 -2 2 -18 -29 -36 -68z"/>
<path d="M382 2305 c-17 -37 -14 -45 4 -12 9 16 14 31 11 33 -2 2 -9 -7 -15
-21z"/>
<path d="M1320 2235 c-19 -22 -8 -25 13 -3 9 10 13 18 8 18 -5 0 -14 -7 -21
-15z"/>
<path d="M1398 2234 l22 -15 2 -412 3 -412 2 409 c3 370 2 411 -13 428 -10 10
-22 18 -28 18 -6 0 0 -7 12 -16z"/>
<path d="M342 2215 c-17 -37 -14 -45 4 -12 9 16 14 31 11 33 -2 2 -9 -7 -15
-21z"/>
<path d="M566 2214 c-9 -8 -16 -21 -16 -27 0 -7 5 -4 11 5 5 10 17 22 27 27 9
6 12 11 5 11 -6 0 -19 -7 -27 -16z"/>
<path d="M633 2219 c10 -6 30 -37 44 -70 14 -33 27 -58 30 -56 5 6 -38 100
-55 120 -8 9 -20 17 -26 17 -6 0 -3 -5 7 -11z"/>
<path d="M462 2195 c-17 -37 -14 -45 4 -12 9 16 14 31 11 33 -2 2 -9 -7 -15
-21z"/>
<path d="M1305 1810 c0 -217 1 -306 2 -197 2 108 2 286 0 395 -1 108 -2 19 -2
-198z"/>
<path d="M297 2108 c-15 -34 -25 -63 -23 -65 2 -2 15 24 30 58 15 34 25 63 23
65 -2 2 -16 -24 -30 -58z"/>
<path d="M551 2158 c-1 -12 31 -89 35 -85 3 2 -4 24 -15 48 -11 24 -20 41 -20
37z"/>
<path d="M411 2079 c-17 -40 -30 -74 -28 -76 2 -2 18 29 36 68 17 40 30 74 28
76 -2 2 -18 -29 -36 -68z"/>
<path d="M711 2075 c0 -5 6 -21 14 -35 8 -14 14 -20 14 -15 0 6 -6 21 -14 35
-8 14 -14 21 -14 15z"/>
<path d="M2301 2038 c-1 -9 -9 -22 -18 -27 -10 -6 -13 -11 -7 -11 17 0 37 27
31 42 -4 8 -6 7 -6 -4z"/>
<path d="M600 2035 c0 -5 5 -17 10 -25 5 -8 10 -10 10 -5 0 6 -5 17 -10 25 -5
8 -10 11 -10 5z"/>
<path d="M246 1995 c-9 -26 -7 -32 5 -12 6 10 9 21 6 23 -2 3 -7 -2 -11 -11z"/>
<path d="M744 2000 c8 -30 59 -140 63 -137 2 3 -12 38 -32 78 -19 41 -33 67
-31 59z"/>
<path d="M366 1975 c-9 -26 -7 -32 5 -12 6 10 9 21 6 23 -2 3 -7 -2 -11 -11z"/>
<path d="M635 1955 c9 -22 24 -57 32 -78 9 -21 17 -36 20 -34 5 5 -47 128 -60
142 -5 6 -1 -8 8 -30z"/>
<path d="M216 1925 c-9 -26 -7 -32 5 -12 6 10 9 21 6 23 -2 3 -7 -2 -11 -11z"/>
<path d="M336 1905 c-9 -26 -7 -32 5 -12 6 10 9 21 6 23 -2 3 -7 -2 -11 -11z"/>
<path d="M171 1819 c-17 -40 -30 -74 -28 -76 2 -2 18 29 36 68 17 40 30 74 28
76 -2 2 -18 -29 -36 -68z"/>
<path d="M311 1848 c-5 -13 -19 -45 -30 -72 -12 -27 -20 -51 -18 -53 3 -2 11
13 20 34 8 21 23 55 31 76 9 20 14 37 11 37 -3 0 -9 -10 -14 -22z"/>
<path d="M811 1845 c0 -5 6 -21 14 -35 8 -14 14 -20 14 -15 0 6 -6 21 -14 35
-8 14 -14 21 -14 15z"/>
<path d="M691 1825 c0 -5 6 -21 14 -35 8 -14 14 -20 14 -15 0 6 -6 21 -14 35
-8 14 -14 21 -14 15z"/>
<path d="M2155 1600 c-126 -126 -238 -231 -249 -233 -18 -4 -18 -4 3 -6 19 -1
74 49 255 229 l232 230 224 -226 c124 -123 235 -227 248 -230 27 -8 72 20 71
44 0 13 -2 12 -9 -5 -13 -33 -53 -39 -87 -15 -15 12 -122 116 -237 231 -115
116 -212 211 -215 211 -4 0 -109 -103 -236 -230z"/>
<path d="M841 1775 c0 -5 8 -26 19 -45 11 -19 19 -30 19 -25 0 6 -8 26 -19 45
-11 19 -19 31 -19 25z"/>
<path d="M731 1735 c0 -5 6 -21 14 -35 8 -14 14 -20 14 -15 0 6 -6 21 -14 35
-8 14 -14 21 -14 15z"/>
<path d="M122 1705 c-17 -37 -14 -45 4 -12 9 16 14 31 11 33 -2 2 -9 -7 -15
-21z"/>
<path d="M236 1675 c-9 -26 -7 -32 5 -12 6 10 9 21 6 23 -2 3 -7 -2 -11 -11z"/>
<path d="M881 1688 c-1 -11 51 -129 56 -125 2 2 -10 33 -26 68 -16 35 -30 61
-30 57z"/>
<path d="M761 1665 c0 -5 6 -21 14 -35 8 -14 14 -20 14 -15 0 6 -6 21 -14 35
-8 14 -14 21 -14 15z"/>
<path d="M92 1635 c-17 -37 -14 -45 4 -12 9 16 14 31 11 33 -2 2 -9 -7 -15
-21z"/>
<path d="M488 1643 c7 -3 16 -2 19 1 4 3 -2 6 -13 5 -11 0 -14 -3 -6 -6z"/>
<path d="M446 1624 c-20 -20 -20 -68 0 -88 22 -22 31 -20 11 2 -10 10 -17 29
-17 42 0 13 7 32 17 42 20 22 11 24 -11 2z"/>
<path d="M533 1622 c22 -24 22 -60 0 -84 -16 -18 -16 -18 0 -12 34 13 34 95 0
108 -16 6 -16 6 0 -12z"/>
<path d="M186 1559 c-15 -34 -25 -63 -23 -66 2 -2 16 24 31 58 15 34 25 63 23
66 -2 2 -16 -24 -31 -58z"/>
<path d="M791 1595 c0 -5 8 -26 19 -45 11 -19 19 -30 19 -25 0 6 -8 26 -19 45
-11 19 -19 31 -19 25z"/>
<path d="M42 1519 c-18 -39 -32 -77 -32 -83 0 -6 16 25 35 68 19 44 33 81 32
83 -2 2 -18 -29 -35 -68z"/>
<path d="M941 1545 c0 -5 6 -21 14 -35 8 -14 14 -20 14 -15 0 6 -6 21 -14 35
-8 14 -14 21 -14 15z"/>
<path d="M488 1513 c7 -3 16 -2 19 1 4 3 -2 6 -13 5 -11 0 -14 -3 -6 -6z"/>
<path d="M831 1505 c0 -5 6 -21 14 -35 8 -14 14 -20 14 -15 0 6 -6 21 -14 35
-8 14 -14 21 -14 15z"/>
<path d="M142 1455 c-17 -37 -14 -45 4 -12 9 16 14 31 11 33 -2 2 -9 -7 -15
-21z"/>
<path d="M981 1455 c1 -19 18 -51 18 -35 0 8 -4 22 -9 30 -5 8 -9 11 -9 5z"/>
<path d="M860 1437 c-1 -20 32 -66 51 -72 29 -9 66 2 73 22 6 16 6 16 -12 0
-34 -31 -69 -21 -95 28 -9 17 -16 26 -17 22z"/>
<path d="M10 1404 c0 -19 36 -44 62 -44 24 0 58 27 58 46 0 4 -7 -2 -16 -14
-20 -30 -68 -30 -88 0 -9 12 -16 18 -16 12z"/>
<path d="M1310 1404 c0 -20 38 -46 62 -41 21 4 21 4 -4 6 -15 0 -34 11 -42 23
-9 12 -16 18 -16 12z"/>
<path d="M1399 1099 l-24 -20 27 16 c36 22 66 11 83 -28 9 -20 14 -25 15 -14
0 21 -43 67 -63 67 -8 0 -25 -9 -38 -21z"/>
<path d="M60 1104 c54 -7 453 -9 415 -2 -22 4 -130 6 -240 6 -110 -1 -189 -2
-175 -4z"/>
<path d="M2345 1099 c16 -5 36 -16 42 -26 7 -9 13 -12 13 -5 0 16 -41 42 -65
41 -14 0 -11 -3 10 -10z"/>
<path d="M2532 1094 c-12 -8 -22 -23 -21 -32 0 -13 3 -11 9 5 12 29 45 37 104
23 27 -6 51 -9 53 -6 4 4 -87 26 -110 26 -7 0 -23 -7 -35 -16z"/>
<path d="M10 1085 c-7 -9 -11 -17 -9 -20 3 -2 10 5 17 15 14 24 10 26 -8 5z"/>
<path d="M2245 1090 c-14 -7 -8 -8 20 -3 22 3 42 7 44 9 9 8 -45 2 -64 -6z"/>
<path d="M528 1083 c7 -3 16 -2 19 1 4 3 -2 6 -13 5 -11 0 -14 -3 -6 -6z"/>
<path d="M590 1065 c46 -18 64 -17 25 0 -16 8 -37 14 -45 14 -8 0 1 -7 20 -14z"/>
<path d="M2142 1041 c-84 -55 -171 -170 -196 -261 -4 -14 11 12 33 57 47 94
112 166 192 212 30 17 49 31 43 31 -6 0 -38 -18 -72 -39z"/>
<path d="M2730 1055 c63 -33 124 -87 161 -145 37 -57 47 -65 23 -18 -34 66
-180 190 -221 188 -4 -1 12 -12 37 -25z"/>
<path d="M1357 1035 c-24 -50 -20 -58 4 -12 11 22 19 41 17 43 -3 2 -12 -12
-21 -31z"/>
<path d="M651 1046 c2 -2 15 -9 29 -15 24 -11 24 -11 6 3 -16 13 -49 24 -35
12z"/>
<path d="M2381 1017 c-13 -21 -12 -21 5 -5 10 10 16 20 13 22 -3 3 -11 -5 -18
-17z"/>
<path d="M2510 1030 c0 -17 44 -38 95 -43 32 -4 43 -3 30 3 -11 5 -35 9 -52 9
-19 1 -42 10 -53 21 -11 11 -20 16 -20 10z"/>
<path d="M1472 1005 c-17 -37 -14 -45 4 -12 9 16 14 31 11 33 -2 2 -9 -7 -15
-21z"/>
<path d="M710 1017 c0 -2 18 -16 39 -30 84 -56 145 -132 187 -234 13 -32 24
-51 24 -42 0 37 -73 161 -129 216 -51 50 -121 103 -121 90z"/>
<path d="M2275 990 c-13 -6 -2 -7 30 -3 28 3 52 7 54 9 9 8 -65 2 -84 -6z"/>
<path d="M110 595 l0 -395 -25 -16 c-23 -15 -27 -15 -50 0 -14 9 -25 22 -25
28 0 6 -2 9 -5 6 -11 -11 8 -40 32 -49 25 -9 60 2 75 25 4 6 8 185 8 398 l0
388 173 3 172 3 -177 2 -178 2 0 -395z"/>
<path d="M478 973 c6 -2 18 -2 25 0 6 3 1 5 -13 5 -14 0 -19 -2 -12 -5z"/>
<path d="M1326 965 c-9 -26 -7 -32 5 -12 6 10 9 21 6 23 -2 3 -7 -2 -11 -11z"/>
<path d="M2225 970 c-3 -6 1 -7 9 -4 18 7 21 14 7 14 -6 0 -13 -4 -16 -10z"/>
<path d="M2701 951 c58 -37 91 -74 128 -141 34 -61 42 -61 11 0 -34 67 -139
170 -173 170 -6 0 9 -13 34 -29z"/>
<path d="M1442 935 c-17 -37 -14 -45 4 -12 9 16 14 31 11 33 -2 2 -9 -7 -15
-21z"/>
<path d="M2158 923 c-40 -37 -98 -117 -98 -137 0 -5 17 18 39 51 21 32 55 73
77 91 21 18 35 32 31 32 -4 0 -26 -17 -49 -37z"/>
<path d="M644 918 c74 -51 113 -88 147 -141 21 -33 39 -56 39 -52 0 5 -14 30
-31 56 -36 56 -94 111 -141 134 -18 8 -25 10 -14 3z"/>
<path d="M1292 885 c-17 -37 -14 -45 4 -12 9 16 14 31 11 33 -2 2 -9 -7 -15
-21z"/>
<path d="M1376 784 c-25 -59 -44 -109 -42 -111 1 -2 24 45 50 103 25 59 44
109 42 111 -1 2 -24 -45 -50 -103z"/>
<path d="M1505 855 c-14 -13 -25 -29 -25 -35 0 -16 42 -111 46 -107 3 2 -5 25
-16 51 -23 51 -20 80 12 97 33 18 64 -4 89 -61 12 -28 23 -49 25 -47 9 9 -38
97 -59 112 -30 21 -44 19 -72 -10z"/>
<path d="M1247 778 c-15 -34 -25 -63 -23 -65 2 -2 15 24 30 58 15 34 25 63 23
65 -2 2 -16 -24 -30 -58z"/>
<path d="M2940 829 c0 -4 7 -22 15 -40 8 -19 14 -27 14 -19 0 14 -28 72 -29
59z"/>
<path d="M1931 734 c0 -11 3 -14 6 -6 3 7 2 16 -1 19 -3 4 -6 -2 -5 -13z"/>
<path d="M1651 715 c0 -5 6 -21 14 -35 8 -14 14 -20 14 -15 0 6 -6 21 -14 35
-8 14 -14 21 -14 15z"/>
<path d="M2031 704 c0 -11 3 -14 6 -6 3 7 2 16 -1 19 -3 4 -6 -2 -5 -13z"/>
<path d="M2981 704 c0 -11 3 -14 6 -6 3 7 2 16 -1 19 -3 4 -6 -2 -5 -13z"/>
<path d="M831 705 c1 -19 18 -51 18 -35 0 8 -4 22 -9 30 -5 8 -9 11 -9 5z"/>
<path d="M1921 694 c0 -11 3 -14 6 -6 3 7 2 16 -1 19 -3 4 -6 -2 -5 -13z"/>
<path d="M1531 695 c0 -5 6 -21 14 -35 8 -14 14 -20 14 -15 0 6 -6 21 -14 35
-8 14 -14 21 -14 15z"/>
<path d="M961 674 c0 -11 3 -14 6 -6 3 7 2 16 -1 19 -3 4 -6 -2 -5 -13z"/>
<path d="M2882 670 c0 -14 2 -19 5 -12 2 6 2 18 0 25 -3 6 -5 1 -5 -13z"/>
<path d="M1196 665 c-9 -26 -7 -32 5 -12 6 10 9 21 6 23 -2 3 -7 -2 -11 -11z"/>
<path d="M2022 660 c0 -14 2 -19 5 -12 2 6 2 18 0 25 -3 6 -5 1 -5 -13z"/>
<path d="M1316 645 c-9 -26 -7 -32 5 -12 6 10 9 21 6 23 -2 3 -7 -2 -11 -11z"/>
<path d="M1914 565 c0 -55 1 -76 3 -47 2 29 2 74 0 100 -2 26 -3 2 -3 -53z"/>
<path d="M2992 635 c0 -16 2 -22 5 -12 2 9 2 23 0 30 -3 6 -5 -1 -5 -18z"/>
<path d="M854 555 c0 -88 1 -94 9 -49 4 28 4 73 0 100 -8 42 -9 35 -9 -51z"/>
<path d="M1681 645 c0 -5 6 -21 14 -35 8 -14 14 -20 14 -15 0 6 -6 21 -14 35
-8 14 -14 21 -14 15z"/>
<path d="M974 555 c0 -49 1 -71 3 -48 2 23 2 64 0 90 -2 26 -3 8 -3 -42z"/>
<path d="M1136 524 c-25 -59 -44 -109 -42 -111 1 -2 24 45 50 103 25 59 44
109 42 111 -1 2 -24 -45 -50 -103z"/>
<path d="M1561 625 c0 -5 6 -21 14 -35 8 -14 14 -20 14 -15 0 6 -6 21 -14 35
-8 14 -14 21 -14 15z"/>
<path d="M2893 560 c0 -36 2 -50 4 -32 2 17 2 47 0 65 -2 17 -4 3 -4 -33z"/>
<path d="M2013 560 c0 -25 2 -35 4 -22 2 12 2 32 0 45 -2 12 -4 2 -4 -23z"/>
<path d="M1251 494 c-23 -53 -40 -98 -38 -100 2 -2 22 40 45 93 23 53 40 98
38 100 -2 2 -22 -40 -45 -93z"/>
<path d="M1714 570 c8 -30 59 -140 63 -137 2 3 -12 38 -32 78 -19 41 -33 67
-31 59z"/>
<path d="M1592 555 c-1 -13 66 -153 67 -140 0 6 -15 42 -34 80 -18 39 -33 66
-33 60z"/>
<path d="M2992 490 c0 -19 2 -27 5 -17 2 9 2 25 0 35 -3 9 -5 1 -5 -18z"/>
<path d="M2016 485 c8 -37 14 -45 14 -19 0 10 -5 26 -10 34 -8 11 -9 7 -4 -15z"/>
<path d="M2881 454 c0 -11 3 -14 6 -6 3 7 2 16 -1 19 -3 4 -6 -2 -5 -13z"/>
<path d="M841 434 c0 -11 3 -14 6 -6 3 7 2 16 -1 19 -3 4 -6 -2 -5 -13z"/>
<path d="M961 434 c0 -11 3 -14 6 -6 3 7 2 16 -1 19 -3 4 -6 -2 -5 -13z"/>
<path d="M1922 430 c0 -14 2 -19 5 -12 2 6 2 18 0 25 -3 6 -5 1 -5 -13z"/>
<path d="M2976 409 c-8 -42 0 -50 9 -9 4 17 5 34 2 36 -2 3 -7 -10 -11 -27z"/>
<path d="M1781 415 c0 -5 6 -21 14 -35 8 -14 14 -20 14 -15 0 6 -6 21 -14 35
-8 14 -14 21 -14 15z"/>
<path d="M806 354 c-16 -30 -54 -78 -85 -106 -31 -28 -42 -42 -25 -30 44 30
99 94 124 143 12 22 20 42 18 44 -2 2 -16 -21 -32 -51z"/>
<path d="M1072 375 c-17 -37 -14 -45 4 -12 9 16 14 31 11 33 -2 2 -9 -7 -15
-21z"/>
<path d="M1661 395 c0 -5 6 -21 14 -35 8 -14 14 -20 14 -15 0 6 -6 21 -14 35
-8 14 -14 21 -14 15z"/>
<path d="M1930 392 c0 -26 50 -134 90 -191 65 -93 167 -162 255 -175 l40 -6
-45 14 c-144 42 -250 144 -311 300 -16 39 -28 65 -29 58z"/>
<path d="M2041 390 c0 -8 4 -22 9 -30 12 -18 12 -2 0 25 -6 13 -9 15 -9 5z"/>
<path d="M936 355 c-9 -26 -7 -32 5 -12 6 10 9 21 6 23 -2 3 -7 -2 -11 -11z"/>
<path d="M1182 335 c-17 -37 -14 -45 4 -12 9 16 14 31 11 33 -2 2 -9 -7 -15
-21z"/>
<path d="M2831 315 c-38 -72 -87 -122 -153 -154 -34 -17 -55 -31 -47 -31 25 0
115 58 147 94 34 39 87 125 80 131 -2 2 -14 -16 -27 -40z"/>
<path d="M2935 293 c-58 -133 -191 -242 -323 -263 l-57 -9 56 4 c125 8 255
108 324 249 21 42 36 78 34 81 -3 2 -18 -26 -34 -62z"/>
<path d="M1810 348 c0 -7 75 -181 88 -203 23 -40 11 -6 -33 95 -42 95 -55 122
-55 108z"/>
<path d="M2060 331 c0 -6 4 -13 10 -16 6 -3 7 1 4 9 -7 18 -14 21 -14 7z"/>
<path d="M1021 259 c-17 -40 -30 -74 -28 -76 2 -2 18 29 36 68 17 40 30 74 28
76 -2 2 -18 -29 -36 -68z"/>
<path d="M1694 320 c8 -30 59 -140 63 -137 2 3 -12 38 -32 78 -19 41 -33 67
-31 59z"/>
<path d="M895 275 c-43 -75 -129 -151 -219 -196 -45 -22 -70 -37 -56 -34 94
26 239 143 288 233 31 56 21 54 -13 -3z"/>
<path d="M1390 300 c-41 -41 -13 -112 45 -112 37 0 65 29 65 68 0 57 -69 85
-110 44z m81 0 c13 -7 19 -21 19 -44 0 -38 -19 -59 -55 -59 -34 1 -55 20 -55
54 0 49 44 73 91 49z"/>
<path d="M2086 290 c30 -63 148 -160 194 -160 8 0 -8 11 -35 24 -51 23 -102
67 -144 121 -12 17 -19 23 -15 15z"/>
<path d="M1152 265 c-17 -37 -14 -45 4 -12 9 16 14 31 11 33 -2 2 -9 -7 -15
-21z"/>
<path d="M1122 195 c-17 -37 -14 -45 4 -12 9 16 14 31 11 33 -2 2 -9 -7 -15
-21z"/>
<path d="M620 180 c-19 -11 -31 -19 -27 -20 11 0 67 29 67 35 0 7 -1 7 -40
-15z"/>
<path d="M972 145 c-17 -37 -14 -45 4 -12 9 16 14 31 11 33 -2 2 -9 -7 -15
-21z"/>
<path d="M1761 165 c0 -5 6 -21 14 -35 8 -14 14 -20 14 -15 0 6 -6 21 -14 35
-8 14 -14 21 -14 15z"/>
<path d="M1092 125 c-17 -37 -14 -45 4 -12 9 16 14 31 11 33 -2 2 -9 -7 -15
-21z"/>
<path d="M488 133 c6 -2 18 -2 25 0 6 3 1 5 -13 5 -14 0 -19 -2 -12 -5z"/>
<path d="M423 123 c9 -2 25 -2 35 0 9 3 1 5 -18 5 -19 0 -27 -2 -17 -5z"/>
<path d="M2311 126 c2 -2 22 -6 44 -9 27 -4 35 -3 25 3 -14 9 -79 15 -69 6z"/>
<path d="M2527 112 c-10 -10 -17 -23 -17 -28 0 -4 7 1 15 13 10 14 29 23 53
26 l37 4 -36 1 c-24 1 -42 -4 -52 -16z"/>
<path d="M306 104 c-9 -8 -16 -21 -16 -27 0 -7 5 -4 11 5 5 10 17 22 27 27 9
6 12 11 5 11 -6 0 -19 -7 -27 -16z"/>
<path d="M1910 115 c0 -5 5 -17 10 -25 5 -8 10 -10 10 -5 0 6 -5 17 -10 25 -5
8 -10 11 -10 5z"/>
<path d="M1790 97 c0 -17 41 -87 52 -87 7 0 5 7 -4 18 -9 9 -23 31 -31 47 -9
17 -16 26 -17 22z"/>
<path d="M1065 61 c-3 -12 -13 -28 -21 -36 -9 -8 -11 -15 -5 -15 12 0 45 59
38 67 -3 2 -8 -5 -12 -16z"/>
<path d="M2511 59 c-1 -19 26 -45 36 -35 3 3 1 6 -6 6 -6 0 -16 10 -21 23 -6
15 -9 17 -9 6z"/>
<path d="M291 48 c-1 -19 25 -48 42 -48 7 0 4 5 -6 11 -10 6 -22 20 -27 32 -6
16 -9 18 -9 5z"/>
<path d="M2378 38 c-10 -10 -14 -18 -9 -18 10 0 36 29 30 34 -2 1 -12 -6 -21
-16z"/>
<path d="M950 43 c0 -6 8 -17 18 -24 16 -13 16 -13 2 6 -8 11 -16 22 -17 24
-2 2 -3 0 -3 -6z"/>
<path d="M1911 27 c-13 -21 -12 -21 5 -5 10 10 16 20 13 22 -3 3 -11 -5 -18
-17z"/>
<path d="M520 25 c-25 -7 -36 -13 -25 -13 11 0 38 5 60 13 52 17 24 17 -35 0z"/>
<path d="M2328 23 c7 -3 16 -2 19 1 4 3 -2 6 -13 5 -11 0 -14 -3 -6 -6z"/>
<path d="M393 3 c15 -2 37 -2 50 0 12 2 0 4 -28 4 -27 0 -38 -2 -22 -4z"/>
<path d="M998 3 c7 -3 16 -2 19 1 4 3 -2 6 -13 5 -11 0 -14 -3 -6 -6z"/>
<path d="M1868 3 c7 -3 16 -2 19 1 4 3 -2 6 -13 5 -11 0 -14 -3 -6 -6z"/>
</g>
</svg>
